<svg xmlns="http://www.w3.org/2000/svg" height="61.793243922190264" width="370.18518518518516" style="width: 370.185px; height: 61.7932px; position: absolute; top: 50%; left: 50%; transform: translate(-50%, -50%) scale(1); z-index: 0; cursor: pointer; overflow: visible;"><defs id="SvgjsDefs1001"><linearGradient id="SvgjsLinearGradient1011"><stop id="SvgjsStop1012" stop-color="#6d7cff" offset="0"></stop><stop id="SvgjsStop1013" stop-color="#ff51ff" offset="1"></stop></linearGradient><linearGradient id="SvgjsLinearGradient1014"><stop id="SvgjsStop1015" stop-color="#6d7cff" offset="0"></stop><stop id="SvgjsStop1016" stop-color="#ff51ff" offset="1"></stop></linearGradient></defs><g id="SvgjsG1007" featurekey="symbolFeature-0" transform="matrix(1.0312366456139077,0,0,1.0312366456139077,-1.1070511403027923,-2.6188257054355666)" fill="url(#SvgjsLinearGradient1011)"><path xmlns="http://www.w3.org/2000/svg" d="M50.996,62.461c-6.838,0-13.058-0.776-18.497-2.31c-5.438,1.533-11.658,2.31-18.495,2.31c-0.65,0-1.226-0.418-1.427-1.036  c-2.113-6.503-3.296-12.658-3.519-18.305C5.921,38.421,3.26,32.747,1.147,26.246c-0.201-0.618,0.02-1.295,0.545-1.677  c5.531-4.019,11.02-7.046,16.321-9.003c3.499-4.437,8.075-8.721,13.605-12.74c0.526-0.382,1.238-0.382,1.764,0  C38.915,6.845,43.49,11.13,46.99,15.567c5.303,1.958,10.79,4.986,16.317,9.001c0.525,0.382,0.745,1.059,0.545,1.677  c-2.113,6.502-4.773,12.177-7.911,16.875c-0.224,5.646-1.406,11.801-3.519,18.304C52.222,62.043,51.646,62.461,50.996,62.461z   M37.81,58.313c3.723,0.703,7.769,1.086,12.092,1.141c1.283-4.128,2.17-8.093,2.651-11.851c-0.094,0.108-0.187,0.216-0.28,0.323  c-3.019,5.261-8.129,8.974-14.064,10.219C38.076,58.202,37.943,58.258,37.81,58.313z M12.448,47.602  c0.481,3.759,1.369,7.725,2.652,11.853c4.322-0.055,8.367-0.437,12.089-1.14c-0.135-0.057-0.269-0.113-0.402-0.171  c-5.93-1.247-11.037-4.958-14.054-10.212C12.638,47.822,12.542,47.713,12.448,47.602z M20.943,51.337  c3.687,2.559,7.575,3.982,11.558,4.233c3.963-0.248,7.835-1.661,11.512-4.201c3.566-2.719,6.114-5.975,7.576-9.679  c0.983-3.831,0.837-7.938-0.435-12.208c-1.481-4.236-3.789-7.672-6.862-10.212c-3.31-2.099-7.384-3.262-11.792-3.366  c-4.469,0.104-8.435,1.235-11.79,3.364c-3.06,2.528-5.362,5.945-6.844,10.157c-1.292,4.306-1.441,8.446-0.44,12.312  C14.884,45.405,17.413,48.635,20.943,51.337z M55.797,37.071c0.013,0.144,0.025,0.287,0.037,0.433  c1.819-3.323,3.433-7.052,4.82-11.146c-3.526-2.495-7.023-4.563-10.448-6.182c0.075,0.124,0.15,0.248,0.224,0.372  C54.495,25.042,56.445,31.046,55.797,37.071z M4.346,26.358c1.388,4.093,3.001,7.822,4.82,11.144  c0.011-0.139,0.023-0.277,0.036-0.415c-0.655-6.04,1.3-12.056,5.379-16.554c0.071-0.12,0.144-0.24,0.217-0.359  C11.373,21.792,7.875,23.861,4.346,26.358z M41.191,13.834c0.141,0.032,0.281,0.064,0.422,0.098  c-2.599-2.757-5.647-5.445-9.112-8.03c-3.465,2.585-6.513,5.272-9.111,8.029c0.14-0.033,0.279-0.066,0.418-0.097  C29.326,11.359,35.674,11.358,41.191,13.834z"></path></g><g id="SvgjsG1008" featurekey="nameFeature-0" transform="matrix(1.206979875891318,0,0,1.206979875891318,83.7930212751744,-4.5664535287626435)" fill="url(#SvgjsLinearGradient1014)"><path d="M21.24 33.24 c1.76 3 3.36 4.84 5.92 5.04 l-1.2 2.04 c-2.6 0 -6.96 0.56 -10.52 -4.64 l-3.32 -4.92 l-0.64 0.12 l0 5.64 c0 1 0.68 1.28 2.96 1.44 l0 2.04 c-4.48 -0.12 -8.92 -0.12 -13.44 0 l0 -2.04 c2.32 -0.16 3 -0.44 3 -1.44 l0 -18.2 c0 -0.88 -0.84 -1.04 -2.6 -1.16 l0 -2 c4.28 0.16 8.48 0 10.52 0 c9.2 0 12.72 2.52 12.72 7.4 c0 2.96 -1.92 5.12 -5.88 6.6 z M11.48 17.16 l0 11.52 l0.4 -0.04 c3.8 -0.68 5.96 -2.64 5.96 -6.24 c0 -3.32 -1.6 -5.24 -4.6 -5.24 l-1.76 0 z M34.44 18.6 c-2.04 0 -3.68 -1.68 -3.68 -3.68 c0 -2.08 1.64 -3.68 3.68 -3.68 c2.08 0 3.6 1.6 3.6 3.68 c0 2 -1.52 3.68 -3.6 3.68 z M38.28 36.48 c0 1 1.08 1.32 2.68 1.48 l0 2.04 c-4.08 -0.12 -8.28 -0.12 -12.36 0 l0 -2.04 c1.4 -0.16 2.56 -0.48 2.56 -1.48 l0 -10.24 c0 -1.6 -1.12 -1.88 -2.6 -1.72 l0 -2 c5.24 -0.96 7.32 -3.08 8.76 -3.08 c0.76 0 1.2 0.52 1.2 1.24 c0 2.24 -0.24 3.88 -0.24 6.44 l0 9.36 z M56.720000000000006 19.64 c3.2 0 9 3.52 9 11.04 c0 6.32 -6.12 10.08 -10 10.08 c-1.64 0 -2.96 -0.76 -4.04 -1.84 l0 2.76 c0 1.64 1.12 1.84 3 1.52 l0 2.2 c-5.28 1.12 -8.76 3.28 -10.28 3.28 c-0.72 0 -1.12 -0.32 -1.12 -0.92 c0 -1.24 1.28 -0.76 1.28 -4.96 l0 -16.44 c0 -1.64 -1.12 -1.88 -2.6 -1.6 l0 -2.04 c4.88 -1.08 7.04 -3.4 8.28 -3.4 c1.16 0 1.44 0.6 1.44 1.76 l0 0.4 c0.96 -0.96 2.32 -1.84 5.04 -1.84 z M55.800000000000004 38.76 c1.96 0 2.2 -3.68 2.2 -5.6 c0 -7.4 -1.72 -11.24 -3.48 -11.24 c-1.04 0 -1.88 0.6 -2.84 1.6 l0 10.68 c0.68 3.08 2.64 4.56 4.12 4.56 z M81.88000000000001 19.64 c3.2 0 9 3.52 9 11.04 c0 6.32 -6.12 10.08 -10 10.08 c-1.64 0 -2.96 -0.76 -4.04 -1.84 l0 2.76 c0 1.64 1.12 1.84 3 1.52 l0 2.2 c-5.28 1.12 -8.76 3.28 -10.28 3.28 c-0.72 0 -1.12 -0.32 -1.12 -0.92 c0 -1.24 1.28 -0.76 1.28 -4.96 l0 -16.44 c0 -1.64 -1.12 -1.88 -2.6 -1.6 l0 -2.04 c4.88 -1.08 7.04 -3.4 8.28 -3.4 c1.16 0 1.44 0.6 1.44 1.76 l0 0.4 c0.96 -0.96 2.32 -1.84 5.04 -1.84 z M80.96000000000001 38.76 c1.96 0 2.2 -3.68 2.2 -5.6 c0 -7.4 -1.72 -11.24 -3.48 -11.24 c-1.04 0 -1.88 0.6 -2.84 1.6 l0 10.68 c0.68 3.08 2.64 4.56 4.12 4.56 z M101.48 34.4 c0 1.56 1.12 1.84 2.68 1.72 l0 2 c-4.52 1 -7.2 2.44 -8.2 2.44 c-1.12 0 -1.48 -0.48 -1.48 -1.72 l0 -19.44 c0 -1.64 -1.12 -1.92 -2.6 -1.64 l0 -2 c4.88 -1.12 6.88 -3.4 8.24 -3.4 c1.08 0 1.36 0.6 1.36 1.76 l0 20.28 z M123.32000000000001 35.24 c0.76 0 0.84 0.76 0.28 1.64 c-1.64 2.4 -3.8 3.52 -7.08 3.52 c-5.84 0 -10.76 -3.64 -10.76 -10.6 c0 -6.84 5.24 -10.16 10.04 -10.16 c5.8 0 9.12 4.12 9.12 7.96 c0 2.12 -0.88 3.52 -3.12 3.52 l-9.08 0 c0.16 3.04 0.52 7.24 4.68 7.24 c2.24 0 3.48 -0.88 4.52 -2.52 c0.28 -0.48 0.4 -0.6 0.96 -0.6 l0.44 0 z M118.28 28.6 c0 -4.28 -0.56 -6.88 -2.56 -6.88 c-2.16 0 -2.96 2.56 -3 6.88 l5.56 0 z M145.08 35.24 c0.92 0 1.32 0.84 0.84 1.6 c-1.68 2.24 -4.24 3.56 -7.52 3.56 c-5.2 0 -11.08 -3.04 -11.08 -10.6 c0 -7.04 5.88 -10.16 10.64 -10.16 c4.72 0 8.68 2.2 8.72 5.72 c0 1.32 -0.72 2.56 -3.12 2.56 c-2.16 0 -3.04 -1.24 -2.92 -2.64 c0.16 -1.72 0.08 -3.56 -2.04 -3.56 c-2.84 0 -3.6 3.48 -3.6 8.2 c0 3.52 0.72 8.44 4.12 8.44 c2.68 0 3.6 -1.2 4 -2.48 c0.16 -0.44 0.48 -0.64 0.84 -0.64 l1.12 0 z M171.07999999999998 34.08 c0 1.6 1.12 1.96 2.68 1.6 l0 1.92 c-4.64 1.2 -7.4 2.96 -8.2 2.96 c-1.24 0 -1.84 -0.84 -1.68 -2.24 l0.48 -2.56 c-0.96 1.72 -3 4.96 -7 4.96 c-2.96 0 -6.56 -1.44 -6.56 -7.24 l0 -10.04 c0 -0.8 -0.32 -1.2 -1.12 -1.16 l-1.2 0.04 l0 -2 l8.16 -0.52 c0.64 -0.04 1.32 0.36 1.32 1.24 l0 11.6 c0 2.56 -0.32 4.96 1.72 4.96 s3.84 -3.92 4.28 -5.04 l0 -9.12 c0 -0.8 -0.4 -1.2 -1.2 -1.16 l-1.12 0.04 l0 -2 l8.12 -0.52 c0.56 -0.04 1.32 0.36 1.32 1.24 l0 13.04 z M191.07999999999998 19.56 c1.88 0 3.48 1.28 3.48 3.28 c0 2.2 -1.96 3 -3.04 3 c-1.76 0 -2.72 -0.92 -3.64 -0.92 c-2.52 0 -2.72 2.76 -2.92 4.08 l0 7.48 c0 1 1 1.32 2.72 1.48 l0 2.04 c-4.12 -0.08 -8.32 -0.08 -12.44 0 l0 -2.04 c1.44 -0.16 2.52 -0.48 2.52 -1.48 l0 -10.08 c0 -1.64 -1.12 -1.88 -2.6 -1.6 l0 -2.04 c4.88 -1.08 7.08 -3.44 8.36 -3.44 c1.16 0 1.6 0.76 1.44 2.08 l-0.6 4.36 c1.48 -4.56 3.68 -6.2 6.72 -6.2 z M204.43999999999997 40.16 l-5.4 -14.92 c-0.72 -2.08 -1.16 -3 -2.88 -3.2 l-0.6 -0.08 l0 -2 l12.08 0 l0 2.04 l-0.92 0.04 c-1.24 0.12 -1.76 0.92 -0.96 3.2 l3.4 10.2 l2.8 -10.32 c0.64 -2.16 -0.56 -3.04 -1.88 -3.08 l-1.72 -0.04 l0 -2.04 l9.96 0 l0 2 l-0.52 0.08 c-2.16 0.24 -2.8 1.16 -3.44 3.08 l-4.48 15.04 l-5.44 0 z M235.67999999999998 35.24 c0.76 0 0.84 0.76 0.28 1.64 c-1.64 2.4 -3.8 3.52 -7.08 3.52 c-5.84 0 -10.76 -3.64 -10.76 -10.6 c0 -6.84 5.24 -10.16 10.04 -10.16 c5.8 0 9.12 4.12 9.12 7.96 c0 2.12 -0.88 3.52 -3.12 3.52 l-9.08 0 c0.16 3.04 0.52 7.24 4.68 7.24 c2.24 0 3.48 -0.88 4.52 -2.52 c0.28 -0.48 0.4 -0.6 0.96 -0.6 l0.44 0 z M230.64 28.6 c0 -4.28 -0.56 -6.88 -2.56 -6.88 c-2.16 0 -2.96 2.56 -3 6.88 l5.56 0 z"></path></g></svg>